<svg width="342" height="224" viewBox="0 0 342 224" fill="none" xmlns="http://www.w3.org/2000/svg">
<path d="M44.6179 102.606V24.5736H13.7116V2.01188H103.843V24.5736H73.0805V102.606H44.6179Z" fill="white"/>
<path d="M116.891 40.956H163.609V62.2245H116.891V40.956ZM118.903 80.6188H171.516V102.606H90.728V2.01188H169.647V23.9988H118.903V80.6188Z" fill="white"/>
<path d="M213.76 104.618C205.806 104.618 198.427 103.372 191.623 100.881C184.914 98.2945 179.068 94.654 174.085 89.9596C169.198 85.2652 165.364 79.7565 162.585 73.4335C159.806 67.0146 158.416 59.9731 158.416 52.3088C158.416 44.6445 159.806 37.6508 162.585 31.3278C165.364 24.9089 169.198 19.3523 174.085 14.658C179.068 9.96358 184.914 6.37094 191.623 3.88005C198.427 1.29335 205.806 0 213.76 0C223.056 0 231.346 1.62866 238.629 4.88599C246.008 8.14331 252.141 12.8377 257.029 18.9691L238.916 35.3515C235.658 31.5194 232.064 28.5974 228.135 26.5855C224.302 24.5736 219.989 23.5677 215.198 23.5677C211.077 23.5677 207.291 24.2383 203.841 25.5796C200.391 26.9208 197.421 28.8848 194.929 31.4715C192.533 33.9624 190.616 36.9802 189.179 40.5249C187.837 44.0697 187.166 47.9976 187.166 52.3088C187.166 56.6199 187.837 60.5479 189.179 64.0926C190.616 67.6374 192.533 70.7031 194.929 73.2898C197.421 75.7807 200.391 77.6967 203.841 79.038C207.291 80.3792 211.077 81.0499 215.198 81.0499C219.989 81.0499 224.302 80.0439 228.135 78.0321C232.064 76.0202 235.658 73.0982 238.916 69.266L257.029 85.6484C252.141 91.6841 246.008 96.3784 238.629 99.7316C231.346 102.989 223.056 104.618 213.76 104.618Z" fill="white"/>
<path d="M313.276 2.01188H341.738V102.606H313.276V2.01188ZM274.463 102.606H246.001V2.01188H274.463V102.606ZM315.288 63.3741H272.451V39.8064H315.288V63.3741Z" fill="white"/>
<path d="M106.061 215.517V107.738H131.165L190.616 179.488H178.757V107.738H208.637V215.517H183.532L124.081 143.767H135.94V215.517H106.061Z" fill="white"/>
<path d="M230.763 215.517V131.911H197.65V107.738H294.219V131.911H261.259V215.517H230.763Z" fill="white"/>
<path d="M10.9799 215.517L69.6096 107.738H110.681L136.351 215.517H104.623L67.3505 122.673H90.1453L52.873 215.517H10.9799ZM37.0089 194.577L44.8638 172.097H97.538L105.393 194.577H37.0089Z" fill="white"/>
<path d="M35.1381 110.089V110.589H35.6381H64.1006H64.6006V110.089V32.5569H81.2482V110.089V110.589H81.7482H162.536H163.036V110.089V96.0694C163.595 96.6592 164.169 97.2372 164.759 97.8035L164.762 97.8068C169.795 102.548 175.697 106.222 182.463 108.831L182.471 108.834C189.335 111.347 196.773 112.601 204.78 112.601C214.135 112.601 222.496 110.962 229.853 107.671L229.856 107.67C232.202 106.604 234.423 105.404 236.521 104.068V110.089V110.589H237.021H265.483H265.983V110.089V71.3574H303.796V110.089V110.589H304.296H332.758H333.258V110.089V9.49515V8.99515H332.758H304.296H303.796V9.49515V46.7897H265.983V9.49515V8.99515H265.483H237.021H236.521V9.49515V15.4539C234.422 14.129 232.199 12.9484 229.852 11.9122C222.495 8.62222 214.134 6.98328 204.78 6.98328C196.772 6.98328 189.332 8.28552 182.467 10.8953C175.7 13.4084 169.796 17.0354 164.762 21.7773L164.759 21.7806C163.491 22.9981 162.294 24.273 161.167 25.6052V9.49515V8.99515H160.667H95.3631H94.8631H81.7482H81.2482H4.73179H4.23179V9.49515V32.0569V32.5569H4.73179H35.1381V110.089ZM230.272 43.2056L236.521 37.5537V82.0304L230.272 76.3785L229.89 76.0326L229.556 76.4254C226.334 80.2144 222.791 83.0922 218.927 85.0703L218.923 85.0726C215.169 87.043 210.937 88.0331 206.218 88.0331C202.152 88.0331 198.429 87.3716 195.043 86.0553C191.657 84.739 188.748 82.8622 186.309 80.4261C183.962 77.8902 182.08 74.8812 180.665 71.3933C179.348 67.9138 178.687 64.0487 178.687 59.7921C178.687 55.5354 179.348 51.6703 180.665 48.1908C182.08 44.7011 183.963 41.7405 186.309 39.3014C188.749 36.7687 191.658 34.8446 195.043 33.5289C198.429 32.2125 202.152 31.551 206.218 31.551C210.937 31.551 215.169 32.5411 218.923 34.5115L218.927 34.5138C222.791 36.4919 226.334 39.3697 229.556 43.1587L229.89 43.5515L230.272 43.2056ZM110.423 31.9821H156.572L153.605 38.8111L153.148 38.6099C153.147 38.6101 153.147 38.6104 153.147 38.6106C151.844 41.5762 150.844 44.6861 150.146 47.9393H110.423V31.9821ZM110.423 87.602V70.2077H149.853C150.551 74.02 151.649 77.6562 153.146 81.1154L153.148 81.1179C154.143 83.3824 155.272 85.5439 156.536 87.602H110.423ZM127.46 223.5H128.004L127.857 222.884L127.46 221.218V166.95L174.167 223.319L174.317 223.5H174.552H199.657H200.157V223V139.894H221.284V223V223.5H221.784H252.279H252.779V223V139.894H285.239H285.739V139.394V115.221V114.721H285.239H200.157H199.657H188.67H188.17H169.777H169.277V115.221V171.271L122.571 114.902L122.421 114.721H122.186L102.096 114.721H101.701L97.0807 114.721H96.5807L60.6297 114.721H60.3325L60.1905 114.982L1.56078 222.761L1.15882 223.5H2H43.8931H44.2312L44.3571 223.186L52.6376 202.56H86.8985L95.179 223.186L95.3049 223.5H95.643H96.5807H97.0807H126.96H127.371H127.46ZM77.4726 179.081H62.0635L69.768 159.889L77.4726 179.081Z" stroke="white" stroke-opacity="0.18"/>
</svg>
