<svg width="15" height="11" viewBox="0 0 15 11" fill="none" xmlns="http://www.w3.org/2000/svg">
<path fill-rule="evenodd" clip-rule="evenodd" d="M7.70296 2.29091C8.5729 1.11442 9.53472 0.188232 10.7646 0.188232C13.0867 0.188232 14.9991 3.14399 15 6.66314C15 8.80988 14.0757 10.1551 12.4155 10.1551C10.969 10.1551 10.1703 9.34329 8.73695 6.94531L8.11168 5.89256L8.00106 5.70789C7.83801 5.4323 7.67239 5.15825 7.50422 4.88575L6.39991 6.83563C4.83157 9.57765 3.9485 10.1551 2.72233 10.1551C1.01806 10.1551 0 8.82863 0 6.72501C0 3.36428 1.8702 0.188232 4.31036 0.188232C4.6094 0.188232 4.89626 0.224793 5.17655 0.3026C5.46716 0.38322 5.74933 0.508837 6.03244 0.684139C6.57334 1.02068 7.11424 1.5419 7.70296 2.29091ZM9.12412 4.37578C8.88788 3.99143 8.66102 3.63802 8.4426 3.31366L8.43697 3.30616C9.22911 2.0828 9.88344 1.4744 10.6606 1.4744C12.2758 1.4744 13.5685 3.85269 13.5685 6.77376C13.5685 7.88744 13.2029 8.53334 12.4483 8.53334C11.7236 8.53334 11.3777 8.05524 10.0016 5.84288L9.12412 4.37578ZM4.54284 1.83438C5.22249 1.92812 5.8412 2.42872 6.73645 3.7102C6.21989 4.50119 5.70897 5.29585 5.20374 6.09411C3.93163 8.08711 3.49197 8.53427 2.7842 8.53427C2.05581 8.53427 1.62177 7.89494 1.62177 6.75314C1.62177 4.31391 2.83857 1.81844 4.28973 1.81844C4.37504 1.81844 4.45941 1.82313 4.54284 1.83438Z" fill="white"/>
</svg>
