<svg width="9" height="9" viewBox="0 0 9 9" fill="none" xmlns="http://www.w3.org/2000/svg">
<path fill-rule="evenodd" clip-rule="evenodd" d="M1.14828 8.08004C1.02903 7.97077 0.958064 7.81859 0.951008 7.65699C0.943953 7.4954 1.00138 7.33762 1.11066 7.21836L5.88445 2.00868L2.18528 2.17106C2.10516 2.17455 2.02514 2.16224 1.94979 2.13481C1.87443 2.10738 1.80521 2.06538 1.74609 2.0112C1.68697 1.95703 1.63909 1.89174 1.6052 1.81906C1.57131 1.74638 1.55207 1.66774 1.54857 1.58762C1.54507 1.5075 1.55739 1.42748 1.58482 1.35213C1.61224 1.27677 1.65424 1.20756 1.70842 1.14843C1.7626 1.08931 1.82789 1.04143 1.90057 1.00754C1.97325 0.973653 2.05189 0.954409 2.13201 0.950911L7.30211 0.725179C7.38225 0.721579 7.46231 0.733824 7.53771 0.761214C7.61311 0.788603 7.68237 0.830599 7.74151 0.884795C7.80066 0.938991 7.84853 1.00432 7.88238 1.07705C7.91624 1.14978 7.93542 1.22847 7.93882 1.30862L8.16455 6.47872C8.17161 6.64052 8.11411 6.7985 8.0047 6.9179C7.89528 7.03731 7.74291 7.10836 7.58111 7.11543C7.41931 7.12249 7.26133 7.06499 7.14192 6.95557C7.02252 6.84616 6.95147 6.69379 6.9444 6.53199L6.78375 2.83274L2.00996 8.04242C1.90069 8.16168 1.74851 8.23264 1.58691 8.23969C1.42532 8.24675 1.26754 8.18932 1.14828 8.08004Z" fill="white"/>
</svg>
