<svg width="138" height="37" viewBox="0 0 138 37" fill="none" xmlns="http://www.w3.org/2000/svg">
<rect width="137.889" height="37" rx="3" fill="white"/>
<path d="M42.508 21.668H45.268V23H40.828V14.624H42.508V21.668ZM50.4038 23.084C49.6198 23.084 48.8998 22.9 48.2438 22.532C47.5878 22.164 47.0678 21.656 46.6838 21.008C46.2998 20.352 46.1078 19.612 46.1078 18.788C46.1078 17.972 46.2998 17.24 46.6838 16.592C47.0678 15.936 47.5878 15.424 48.2438 15.056C48.8998 14.688 49.6198 14.504 50.4038 14.504C51.1958 14.504 51.9158 14.688 52.5638 15.056C53.2198 15.424 53.7358 15.936 54.1118 16.592C54.4958 17.24 54.6878 17.972 54.6878 18.788C54.6878 19.612 54.4958 20.352 54.1118 21.008C53.7358 21.656 53.2198 22.164 52.5638 22.532C51.9078 22.9 51.1878 23.084 50.4038 23.084ZM50.4038 21.584C50.9078 21.584 51.3518 21.472 51.7358 21.248C52.1198 21.016 52.4198 20.688 52.6358 20.264C52.8518 19.84 52.9598 19.348 52.9598 18.788C52.9598 18.228 52.8518 17.74 52.6358 17.324C52.4198 16.9 52.1198 16.576 51.7358 16.352C51.3518 16.128 50.9078 16.016 50.4038 16.016C49.8998 16.016 49.4518 16.128 49.0598 16.352C48.6758 16.576 48.3758 16.9 48.1598 17.324C47.9438 17.74 47.8358 18.228 47.8358 18.788C47.8358 19.348 47.9438 19.84 48.1598 20.264C48.3758 20.688 48.6758 21.016 49.0598 21.248C49.4518 21.472 49.8998 21.584 50.4038 21.584ZM61.9497 17.144C61.7577 16.792 61.4937 16.524 61.1577 16.34C60.8217 16.156 60.4297 16.064 59.9817 16.064C59.4857 16.064 59.0457 16.176 58.6617 16.4C58.2777 16.624 57.9777 16.944 57.7617 17.36C57.5457 17.776 57.4377 18.256 57.4377 18.8C57.4377 19.36 57.5457 19.848 57.7617 20.264C57.9857 20.68 58.2937 21 58.6857 21.224C59.0777 21.448 59.5337 21.56 60.0537 21.56C60.6937 21.56 61.2177 21.392 61.6257 21.056C62.0337 20.712 62.3017 20.236 62.4297 19.628H59.5497V18.344H64.0857V19.808C63.9737 20.392 63.7337 20.932 63.3657 21.428C62.9977 21.924 62.5217 22.324 61.9377 22.628C61.3617 22.924 60.7137 23.072 59.9937 23.072C59.1857 23.072 58.4537 22.892 57.7977 22.532C57.1497 22.164 56.6377 21.656 56.2617 21.008C55.8937 20.36 55.7097 19.624 55.7097 18.8C55.7097 17.976 55.8937 17.24 56.2617 16.592C56.6377 15.936 57.1497 15.428 57.7977 15.068C58.4537 14.7 59.1817 14.516 59.9817 14.516C60.9257 14.516 61.7457 14.748 62.4417 15.212C63.1377 15.668 63.6177 16.312 63.8817 17.144H61.9497ZM67.1886 14.624V23H65.5086V14.624H67.1886ZM76.1925 23H74.5125L70.7085 17.252V23H69.0285V14.612H70.7085L74.5125 20.372V14.612H76.1925V23Z" fill="black"/>
<path fill-rule="evenodd" clip-rule="evenodd" d="M88.1483 22.0976C88.029 21.9883 87.9581 21.8362 87.951 21.6746C87.944 21.513 88.0014 21.3552 88.1107 21.2359L92.8844 16.0263L89.1853 16.1886C89.1052 16.1921 89.0251 16.1798 88.9498 16.1524C88.8744 16.125 88.8052 16.083 88.7461 16.0288C88.687 15.9746 88.6391 15.9093 88.6052 15.8366C88.5713 15.764 88.5521 15.6853 88.5486 15.6052C88.5451 15.5251 88.5574 15.4451 88.5848 15.3697C88.6122 15.2943 88.6542 15.2251 88.7084 15.166C88.7626 15.1069 88.8279 15.059 88.9006 15.0251C88.9732 14.9912 89.0519 14.972 89.132 14.9685L94.3021 14.7428C94.3822 14.7392 94.4623 14.7514 94.5377 14.7788C94.6131 14.8062 94.6824 14.8482 94.7415 14.9024C94.8007 14.9566 94.8485 15.0219 94.8824 15.0946C94.9162 15.1674 94.9354 15.246 94.9388 15.3262L95.1645 20.4963C95.1716 20.6581 95.1141 20.8161 95.0047 20.9355C94.8953 21.0549 94.7429 21.1259 94.5811 21.133C94.4193 21.1401 94.2613 21.0826 94.1419 20.9732C94.0225 20.8637 93.9515 20.7114 93.9444 20.5496L93.7838 16.8503L89.01 22.06C88.9007 22.1793 88.7485 22.2502 88.5869 22.2573C88.4253 22.2643 88.2675 22.2069 88.1483 22.0976Z" fill="black"/>
</svg>
