<svg width="193" height="127" viewBox="0 0 193 127" fill="none" xmlns="http://www.w3.org/2000/svg">
<path d="M25.9598 57.6847V13.8152H8.58439V1.13107H59.256V13.8152H41.9614V57.6847H25.9598Z" fill="#D9D9D9"/>
<path d="M66.5913 23.0254H92.8565V34.9824H66.5913V23.0254ZM67.7227 45.3237H97.3014V57.6847H51.8828V1.13107H96.2508V13.4921H67.7227V45.3237Z" fill="#D9D9D9"/>
<path d="M121.051 58.8157C116.579 58.8157 112.431 58.1155 108.606 56.7152C104.834 55.2609 101.548 53.2142 98.746 50.5751C95.9982 47.9359 93.8431 44.8389 92.2807 41.2841C90.7183 37.6755 89.937 33.7167 89.937 29.4079C89.937 25.099 90.7183 21.1672 92.2807 17.6124C93.8431 14.0037 95.9982 10.8798 98.746 8.24066C101.548 5.6015 104.834 3.58173 108.606 2.18135C112.431 0.727118 116.579 0 121.051 0C126.277 0 130.938 0.915631 135.032 2.74689C139.181 4.57815 142.629 7.21732 145.377 10.6644L135.194 19.8745C133.362 17.7201 131.342 16.0774 129.133 14.9463C126.978 13.8152 124.553 13.2497 121.859 13.2497C119.543 13.2497 117.414 13.6267 115.475 14.3808C113.535 15.1348 111.865 16.239 110.464 17.6932C109.117 19.0936 108.04 20.7902 107.232 22.783C106.477 24.7759 106.1 26.9841 106.1 29.4079C106.1 31.8316 106.477 34.0399 107.232 36.0327C108.04 38.0256 109.117 39.7491 110.464 41.2033C111.865 42.6037 113.535 43.6809 115.475 44.435C117.414 45.189 119.543 45.566 121.859 45.566C124.553 45.566 126.978 45.0005 129.133 43.8694C131.342 42.7384 133.362 41.0956 135.194 38.9412L145.377 48.1513C142.629 51.5446 139.181 54.1837 135.032 56.0688C130.938 57.9001 126.277 58.8157 121.051 58.8157Z" fill="#D9D9D9"/>
<path d="M176.999 1.13107H193V57.6847H176.999V1.13107ZM155.178 57.6847H139.177V1.13107H155.178V57.6847ZM178.13 35.6288H154.047V22.3791H178.13V35.6288Z" fill="#D9D9D9"/>
<path d="M60.5027 121.163V60.5699H74.6166L108.04 100.908H101.373V60.5699H118.171V121.163H104.057L70.6336 80.8253H77.3009V121.163H60.5027Z" fill="#D9D9D9"/>
<path d="M130.61 121.163V74.16H111.994V60.5699H166.285V74.16H147.755V121.163H130.61Z" fill="#D9D9D9"/>
<path d="M7.04858 121.163L40.0101 60.5699H63.1004L77.5317 121.163H59.6944L38.74 68.9664H51.5552L30.6008 121.163H7.04858ZM21.682 109.391L26.0981 96.7526H55.7113L60.1274 109.391H21.682Z" fill="#D9D9D9"/>
<path d="M20.4112 62.3919V61.8919V18.5225H3.53581H3.03581V18.0225V5.33835V4.83835H3.53581H46.3342H46.8342H54.2074H54.7074H91.2022H91.7022V5.33835V13.8071C92.2262 13.2131 92.7759 12.6398 93.351 12.0873L93.3545 12.084C96.2067 9.39726 99.5508 7.34305 103.381 5.92048C107.268 4.44328 111.477 3.70728 116.003 3.70728C121.287 3.70728 126.018 4.63318 130.186 6.4971L20.4112 62.3919ZM20.4112 62.3919H20.9112H36.9128H37.4128V61.8919V18.5225M20.4112 62.3919L37.4128 18.5225M37.4128 18.5225H46.3342V61.8919V62.3919H46.8342H92.2528H92.7528V61.8919V54.5519C92.949 54.7514 93.1484 54.9484 93.351 55.143L93.3545 55.1463C96.2057 57.8321 99.5483 59.9126 103.377 61.389L103.377 61.389L103.385 61.392C107.271 62.8144 111.478 63.523 116.003 63.523C121.288 63.523 126.019 62.5969 130.188 60.7326L130.191 60.7313C131.394 60.1845 132.54 59.575 133.628 58.9028V61.8919V62.3919H134.128H150.13H150.63V61.8919V40.336H171.45V61.8919V62.3919H171.95H187.952H188.452V61.8919V5.33835V4.83835H187.952H171.95H171.45V5.33835V26.0863H150.63V5.33835V4.83835H150.13H134.128H133.628V5.33835L37.4128 18.5225ZM86.7744 21.6185C86.7741 21.6191 86.7738 21.6198 86.7735 21.6205C86.7734 21.6206 86.7734 21.6208 86.7733 21.621L87.2321 21.8197L86.7744 21.6185ZM72.7523 125.87H73.1161L72.9695 125.254L72.7523 124.343V94.4663L98.6231 125.689L98.7731 125.87H99.0082H113.122H113.622V125.37V78.8673H125.062V125.37V125.87H125.562H142.706H143.206V125.37V78.8673H161.236H161.736V78.3673V64.7771V64.2771H161.236H113.622H113.122H106.945H106.445H96.3239H95.8239V64.7771V95.6811L69.9531 64.4581L69.8031 64.2771H69.5681L58.4467 64.2772H58.0518L55.4541 64.2771H54.9541L34.9615 64.2772H34.6643L34.5223 64.5382L1.56078 125.131L1.15882 125.87H2H25.5522H25.8903L26.0162 125.557L30.6163 114.098H49.5817L54.1818 125.557L54.3078 125.87H54.6458H54.9541H55.4541H72.2523H72.4831H72.7523ZM44.1067 100.46H36.0913L40.099 90.4768L44.1067 100.46Z" stroke="white" stroke-opacity="0.18"/>
</svg>
