<svg width="677" height="316" viewBox="0 0 677 316" fill="none" xmlns="http://www.w3.org/2000/svg">
<path d="M9.14865 0C4.09599 0 0 4.08896 0 9.13295V188.139C0 193.183 4.09599 197.272 9.14865 197.272H151.868C156.92 197.272 161.016 193.183 161.016 188.139V9.13295C161.016 4.08896 156.92 0 151.868 0H9.14865ZM178.399 93.1561C173.346 93.1561 169.25 97.245 169.25 102.289V188.139C169.25 193.183 173.346 197.272 178.399 197.272H329.351C334.404 197.272 338.5 193.183 338.5 188.139V102.289C338.5 97.245 334.404 93.1561 329.351 93.1561H178.399ZM169.25 9.13295C169.25 4.08896 173.346 0 178.399 0H329.351C334.404 0 338.5 4.08896 338.5 9.13295V69.4104C338.5 74.4544 334.404 78.5434 329.351 78.5434H178.399C173.346 78.5434 169.25 74.4544 169.25 69.4104V9.13295ZM355.882 0C350.83 0 346.734 4.08897 346.734 9.13295V306.867C346.734 311.911 350.83 316 355.882 316H498.601C503.654 316 507.75 311.911 507.75 306.867V9.13295C507.75 4.08896 503.654 0 498.601 0H355.882ZM515.984 9.13295C515.984 4.08896 520.08 0 525.132 0H667.851C672.904 0 677 4.08896 677 9.13295V171.699C677 176.743 672.904 180.832 667.851 180.832H525.132C520.08 180.832 515.984 176.743 515.984 171.699V9.13295ZM525.132 197.272C520.08 197.272 515.984 201.361 515.984 206.405V306.867C515.984 311.911 520.08 316 525.132 316H667.851C672.904 316 677 311.911 677 306.867V206.405C677 201.361 672.904 197.272 667.851 197.272H525.132ZM0 221.017C0 215.973 4.09599 211.884 9.14865 211.884H329.351C334.404 211.884 338.5 215.973 338.5 221.017V306.867C338.5 311.911 334.404 316 329.351 316H9.14864C4.09598 316 0 311.911 0 306.867V221.017Z" fill="black"/>
<path d="M9.14865 0C4.09599 0 0 4.08896 0 9.13295V188.139C0 193.183 4.09599 197.272 9.14865 197.272H151.868C156.92 197.272 161.016 193.183 161.016 188.139V9.13295C161.016 4.08896 156.92 0 151.868 0H9.14865ZM178.399 93.1561C173.346 93.1561 169.25 97.245 169.25 102.289V188.139C169.25 193.183 173.346 197.272 178.399 197.272H329.351C334.404 197.272 338.5 193.183 338.5 188.139V102.289C338.5 97.245 334.404 93.1561 329.351 93.1561H178.399ZM169.25 9.13295C169.25 4.08896 173.346 0 178.399 0H329.351C334.404 0 338.5 4.08896 338.5 9.13295V69.4104C338.5 74.4544 334.404 78.5434 329.351 78.5434H178.399C173.346 78.5434 169.25 74.4544 169.25 69.4104V9.13295ZM355.882 0C350.83 0 346.734 4.08897 346.734 9.13295V306.867C346.734 311.911 350.83 316 355.882 316H498.601C503.654 316 507.75 311.911 507.75 306.867V9.13295C507.75 4.08896 503.654 0 498.601 0H355.882ZM515.984 9.13295C515.984 4.08896 520.08 0 525.132 0H667.851C672.904 0 677 4.08896 677 9.13295V171.699C677 176.743 672.904 180.832 667.851 180.832H525.132C520.08 180.832 515.984 176.743 515.984 171.699V9.13295ZM525.132 197.272C520.08 197.272 515.984 201.361 515.984 206.405V306.867C515.984 311.911 520.08 316 525.132 316H667.851C672.904 316 677 311.911 677 306.867V206.405C677 201.361 672.904 197.272 667.851 197.272H525.132ZM0 221.017C0 215.973 4.09599 211.884 9.14865 211.884H329.351C334.404 211.884 338.5 215.973 338.5 221.017V306.867C338.5 311.911 334.404 316 329.351 316H9.14864C4.09598 316 0 311.911 0 306.867V221.017Z" stroke="black"/>
</svg>
