<svg width="1100" height="877" viewBox="0 0 1100 877" fill="none" xmlns="http://www.w3.org/2000/svg">
<path d="M141 79H372C466.993 79 544 156.007 544 251V423H313C218.007 423 141 345.993 141 251V79Z" fill="black"/>
<path d="M555 251C555 156.007 632.007 79 727 79H958V251C958 345.993 880.993 423 786 423H555V251Z" fill="black"/>
<path d="M141 605C141 510.007 218.007 433 313 433H544V605C544 699.993 466.993 777 372 777H141V605Z" fill="black"/>
<path d="M555 433H786C880.993 433 958 510.007 958 605V777H727C632.007 777 555 699.993 555 605V433Z" fill="black"/>
<path d="M71.8111 356L141.404 427.811L69.5929 497.404L0 425.593L71.8111 356Z" fill="black"/>
<path d="M1029.81 364L1099.4 435.811L1027.59 505.404L958 433.593L1029.81 364Z" fill="black"/>
<path d="M73.3187 216.513L21.9937 153.431L41.0889 137.895L92.414 200.977L73.3187 216.513ZM33.4306 212.414L17.8944 193.319L80.977 141.994L96.5132 161.089L33.4306 212.414Z" fill="black"/>
<path d="M544 0L587.301 75H500.699L544 0Z" fill="black"/>
<path d="M544 877L500.699 802H587.301L544 877Z" fill="black"/>
</svg>
