<svg width="202" height="48" viewBox="0 0 202 48" fill="none" xmlns="http://www.w3.org/2000/svg">
<rect x="1" y="0.5" width="200" height="47" rx="2.5" fill="white"/>
<path d="M54.58 32L51.076 25.64H50.092V32H45.988V15.152H52.876C54.204 15.152 55.332 15.384 56.26 15.848C57.204 16.312 57.908 16.952 58.372 17.768C58.836 18.568 59.068 19.464 59.068 20.456C59.068 21.576 58.748 22.576 58.108 23.456C57.484 24.336 56.556 24.96 55.324 25.328L59.212 32H54.58ZM50.092 22.736H52.636C53.388 22.736 53.948 22.552 54.316 22.184C54.7 21.816 54.892 21.296 54.892 20.624C54.892 19.984 54.7 19.48 54.316 19.112C53.948 18.744 53.388 18.56 52.636 18.56H50.092V22.736ZM65.8683 18.44V21.848H71.3643V25.016H65.8683V28.712H72.0843V32H61.7642V15.152H72.0843V18.44H65.8683ZM86.0526 20.48C85.7486 19.92 85.3086 19.496 84.7326 19.208C84.1726 18.904 83.5086 18.752 82.7406 18.752C81.4126 18.752 80.3486 19.192 79.5486 20.072C78.7486 20.936 78.3486 22.096 78.3486 23.552C78.3486 25.104 78.7646 26.32 79.5966 27.2C80.4446 28.064 81.6046 28.496 83.0766 28.496C84.0846 28.496 84.9326 28.24 85.6206 27.728C86.3246 27.216 86.8366 26.48 87.1566 25.52H81.9486V22.496H90.8766V26.312C90.5726 27.336 90.0526 28.288 89.3166 29.168C88.5966 30.048 87.6766 30.76 86.5566 31.304C85.4366 31.848 84.1726 32.12 82.7646 32.12C81.1006 32.12 79.6126 31.76 78.3006 31.04C77.0046 30.304 75.9886 29.288 75.2526 27.992C74.5326 26.696 74.1726 25.216 74.1726 23.552C74.1726 21.888 74.5326 20.408 75.2526 19.112C75.9886 17.8 77.0046 16.784 78.3006 16.064C79.5966 15.328 81.0766 14.96 82.7406 14.96C84.7566 14.96 86.4526 15.448 87.8286 16.424C89.2206 17.4 90.1406 18.752 90.5886 20.48H86.0526ZM97.3739 15.152V32H93.2699V15.152H97.3739ZM106.564 32.168C105.332 32.168 104.228 31.968 103.252 31.568C102.276 31.168 101.492 30.576 100.9 29.792C100.324 29.008 100.02 28.064 99.988 26.96H104.356C104.42 27.584 104.636 28.064 105.004 28.4C105.372 28.72 105.852 28.88 106.444 28.88C107.052 28.88 107.532 28.744 107.884 28.472C108.236 28.184 108.412 27.792 108.412 27.296C108.412 26.88 108.268 26.536 107.98 26.264C107.708 25.992 107.364 25.768 106.948 25.592C106.548 25.416 105.972 25.216 105.22 24.992C104.132 24.656 103.244 24.32 102.556 23.984C101.868 23.648 101.276 23.152 100.78 22.496C100.284 21.84 100.036 20.984 100.036 19.928C100.036 18.36 100.604 17.136 101.74 16.256C102.876 15.36 104.356 14.912 106.18 14.912C108.036 14.912 109.532 15.36 110.668 16.256C111.804 17.136 112.412 18.368 112.492 19.952H108.052C108.02 19.408 107.82 18.984 107.452 18.68C107.084 18.36 106.612 18.2 106.036 18.2C105.54 18.2 105.14 18.336 104.836 18.608C104.532 18.864 104.38 19.24 104.38 19.736C104.38 20.28 104.636 20.704 105.148 21.008C105.66 21.312 106.46 21.64 107.548 21.992C108.636 22.36 109.516 22.712 110.188 23.048C110.876 23.384 111.468 23.872 111.964 24.512C112.46 25.152 112.708 25.976 112.708 26.984C112.708 27.944 112.46 28.816 111.964 29.6C111.484 30.384 110.78 31.008 109.852 31.472C108.924 31.936 107.828 32.168 106.564 32.168ZM127.474 15.152V18.44H123.01V32H118.906V18.44H114.442V15.152H127.474ZM133.757 18.44V21.848H139.253V25.016H133.757V28.712H139.973V32H129.653V15.152H139.973V18.44H133.757ZM151.35 32L147.846 25.64H146.862V32H142.758V15.152H149.646C150.974 15.152 152.102 15.384 153.03 15.848C153.974 16.312 154.678 16.952 155.142 17.768C155.606 18.568 155.838 19.464 155.838 20.456C155.838 21.576 155.518 22.576 154.878 23.456C154.254 24.336 153.326 24.96 152.094 25.328L155.982 32H151.35ZM146.862 22.736H149.406C150.158 22.736 150.718 22.552 151.086 22.184C151.47 21.816 151.662 21.296 151.662 20.624C151.662 19.984 151.47 19.48 151.086 19.112C150.718 18.744 150.158 18.56 149.406 18.56H146.862V22.736Z" fill="black"/>
<rect x="1" y="0.5" width="200" height="47" rx="2.5" stroke="white"/>
</svg>
